<svg id="logo_cong" data-name="logo cong" xmlns="http://www.w3.org/2000/svg" viewBox="0 0 46.32 46.32"><defs><style>.cls-1{fill:#e60019;}.cls-2{fill:#ffe600;}.cls-3{fill:#2067dd;}</style></defs><title>Artboard 1</title><g id="Group_34" data-name="Group 34"><circle id="Ellipse_183" data-name="Ellipse 183" class="cls-1" cx="25.27" cy="23.22" r="8.89"/><path id="Path_8199" data-name="Path 8199" class="cls-2" d="M25.27,17.83l1.34,4.11h4.33l-3.5,2.55,1.33,4.11-3.5-2.54-3.5,2.54,1.34-4.11L19.61,22h4.33Z"/></g><g id="Group_37" data-name="Group 37"><path id="Path_8227" data-name="Path 8227" class="cls-3" d="M34.91,28.69a11,11,0,0,1-19-11l.05-.09L14,15.83a13.56,13.56,0,0,0,22.79,14.7l0-.07Z"/><path id="Path_8228" data-name="Path 8228" class="cls-3" d="M38.17,31.68A15.35,15.35,0,1,1,12.56,14.75l.1-.16-1.9-1.74A17.91,17.91,0,1,0,39.89,33.69l.18-.26Z"/><path id="Path_8229" data-name="Path 8229" class="cls-3" d="M41.78,35A20.21,20.21,0,1,1,9,11.42l.1-.14L7.15,9.53A22.78,22.78,0,1,0,43.68,36.74h0Z"/><path id="Path_8230" data-name="Path 8230" class="cls-3" d="M17.16,1.94l16.21,15.3,1.76-1.8L19.91,1.06A23.18,23.18,0,0,0,17.16,1.94Z"/><path id="Path_8231" data-name="Path 8231" class="cls-3" d="M22.67.57,36.92,13.63l1.76-1.8L26.23.43c-.27,0-.55,0-.83,0A22.48,22.48,0,0,0,22.67.57Z"/><path id="Path_8232" data-name="Path 8232" class="cls-3" d="M30.45,1l9.94,9.11L42.4,8A22.75,22.75,0,0,0,30.45,1Z"/><path id="Path_8233" data-name="Path 8233" class="cls-3" d="M24.25,12.23,14.6,3.11a25.59,25.59,0,0,0-2.22,1.38l9,8.46A10.82,10.82,0,0,1,24.25,12.23Z"/><path id="Path_8234" data-name="Path 8234" class="cls-3" d="M19,14.23,10.62,5.85A19.92,19.92,0,0,0,8.8,7.59l8.33,8.33A11.52,11.52,0,0,1,19,14.23Z"/></g></svg>